#!OML:ASF F:\VICON\USERDATA\INSTALL\rory3\rory3.ASF
:FULLY-SPECIFIED
:DEGREES
947
root -9.12125 16.693 10.7254 3.52473 -48.4252 2.3363
lowerback 26.1024 1.84323 3.16198
upperback 5.03845 3.14786 1.29182
thorax -8.7709 1.33202 -1.39725
lowerneck -16.3234 -6.53709 -10.7014
upperneck 35.2293 -9.15371 6.33467
head 16.1366 -4.52413 2.85088
rclavicle -4.09496e-014 -8.74653e-015
rhumerus -3.23646 12.8003 -85.6875
rradius 35.0303
rwrist 15.1774
rhand -28.2181 4.3006
rfingers 7.12502
rthumb -1.59655 -25.6732
lclavicle -4.09496e-014 -8.74653e-015
lhumerus -25.4625 -41.4337 104.045
lradius 47.012
lwrist -22.0037
lhand -36.0824 24.6087
lfingers 7.12502
lthumb -9.18934 54.3885
rfemur -39.0548 -25.6054 24.9254
rtibia 57.8282
rfoot -23.4244 5.11295
rtoes 10.1325
lfemur -36.992 -0.910272 -17.2258
ltibia 48.1935
lfoot -16.9494 -12.4663
ltoes -11.6032
948
root -9.12707 16.8057 10.7135 3.60856 -48.3695 2.50812
lowerback 25.3793 1.75081 2.97031
upperback 4.92765 2.95321 1.15603
thorax -8.53559 1.25443 -1.35319
lowerneck -16.7919 -6.33593 -10.4077
upperneck 35.4983 -8.8125 6.05135
head 16.3041 -4.37571 2.73776
rclavicle -4.65156e-014 1.03368e-014
rhumerus -3.70004 13.3077 -85.9363
rradius 35.1752
rwrist 14.4106
rhand -27.8985 4.47078
rfingers 7.12502
rthumb -1.28784 -25.5051
lclavicle -4.65156e-014 1.03368e-014
lhumerus -25.6081 -41.0679 103.906
lradius 46.5099
lwrist -21.542
lhand -35.0878 24.0377
lfingers 7.12502
lthumb -8.22948 53.8575
rfemur -38.317 -24.8255 24.7704
rtibia 56.1073
rfoot -22.6501 4.34878
rtoes 10.459
lfemur -36.0896 -1.23508 -17.2705
ltibia 46.1368
lfoot -16.5004 -12.0323
ltoes -12.8647
949
root -9.12512 16.9093 10.7054 3.71654 -48.2553 2.70779
lowerback 24.6379 1.65166 2.90941
upperback 4.74329 2.79206 1.03705
thorax -8.36269 1.1881 -1.37864
lowerneck -16.9542 -6.18392 -10.4103
upperneck 35.7122 -8.54959 5.9577
head 16.415 -4.28214 2.74991
rclavicle 1.05356e-013 -3.18055e-014
rhumerus -4.38419 13.7364 -86.0626
rradius 35.4037
rwrist 13.5615
rhand -27.574 4.54144
rfingers 7.12502
rthumb -0.97452 -25.4361
lclavicle 1.05356e-013 -3.18055e-014
lhumerus -25.9232 -40.8327 104.012
lradius 46.0983
lwrist -20.6774
lhand -33.8953 23.6756
lfingers 7.12502
lthumb -7.07848 53.5373
rfemur -37.6833 -24.128 24.643
rtibia 54.388
rfoot -21.7978 3.31548
rtoes 9.533
lfemur -35.3238 -1.60923 -17.3586
ltibia 44.1692
lfoot -16.118 -11.738
ltoes -14.4652
950
root -9.12252 17.0054 10.7001 3.59145 -48.1255 2.86175
lowerback 24.2764 1.57928 2.92372
upperback 4.50403 2.70522 0.990418
thorax -8.4423 1.14825 -1.40501
lowerneck -16.7104 -6.07134 -10.6487
upperneck 35.8379 -8.33983 5.9506
head 16.4103 -4.24043 2.83784
rclavicle -2.78299e-014 3.10104e-014
rhumerus -5.29614 13.9902 -86.1101
rradius 35.637
rwrist 12.7991
rhand -27.044 4.85916
rfingers 7.12502
rthumb -0.462625 -25.1201
lclavicle -2.78299e-014 3.10104e-014
lhumerus -26.6199 -40.495 104.52
lradius 45.8203
lwrist -19.6995
lhand -32.8942 23.8089
lfingers 7.12502
lthumb -6.11212 53.7008
rfemur -36.7193 -23.5693 24.4671
rtibia 52.6314
rfoot -20.9637 2.11017
rtoes 6.26186
lfemur -34.2902 -2.03023 -17.4059
ltibia 42.2929
lfoot -15.8836 -11.5705
ltoes -15.25
951
root -9.12949 17.1027 10.6962 3.48437 -47.9365 2.72618
lowerback 24.0525 1.46927 3.10544
upperback 4.33879 2.6115 0.966006
thorax -8.50358 1.09983 -1.50346
lowerneck -16.4857 -5.94971 -10.7129
upperneck 35.8747 -8.14713 5.89852
head 16.3515 -4.18594 2.86975
rclavicle 5.40694e-014 -5.40694e-014
rhumerus -6.17164 14.1505 -86.237
rradius 35.8994
rwrist 12.1149
rhand -26.4073 5.22133
rfingers 7.12502
rthumb 0.152332 -24.7584
lclavicle 5.40694e-014 -5.40694e-014
lhumerus -27.282 -40.1721 104.875
lradius 45.5948
lwrist -18.6753
lhand -32.1156 23.8867
lfingers 7.12502
lthumb -5.36037 53.7989
rfemur -35.4009 -22.8819 24.3524
rtibia 50.8344
rfoot -20.107 1.0738
rtoes 4.18665
lfemur -33.0278 -2.39629 -17.2599
ltibia 40.5087
lfoot -15.9126 -11.5443
ltoes -15.1086
952
root -9.14494 17.1951 10.6869 3.42452 -47.6834 2.49373
lowerback 23.7594 1.33635 3.23151
upperback 4.27874 2.46779 0.980716
thorax -8.41875 1.03233 -1.50827
lowerneck -16.5439 -5.84151 -10.7267
upperneck 35.9949 -7.95259 5.818
head 16.3997 -4.12166 2.87616
rclavicle -1.08536e-013 -1.11319e-014
rhumerus -6.88517 14.4096 -86.3311
rradius 36.2134
rwrist 11.3282
rhand -25.7926 5.4911
rfingers 7.12502
rthumb 0.746026 -24.4873
lclavicle -1.08536e-013 -1.11319e-014
lhumerus -27.5955 -39.9827 104.88
lradius 45.3633
lwrist -17.9368
lhand -31.144 24.0377
lfingers 7.12502
lthumb -4.42219 53.9715
rfemur -34.0262 -22.064 24.3009
rtibia 49.0321
rfoot -19.1864 0.0378088
rtoes 4.61417
lfemur -31.7654 -2.67037 -17.0399
ltibia 38.8229
lfoot -16.1042 -11.6884
ltoes -14.2466
953
root -9.15997 17.2749 10.6687 3.51505 -47.3783 2.17886
lowerback 23.4907 1.22604 3.30494
upperback 4.15232 2.34879 1.03842
thorax -8.42353 0.97647 -1.44607
lowerneck -16.6445 -5.74215 -10.7601
upperneck 36.1826 -7.79683 5.81417
head 16.5038 -4.06645 2.91305
rclavicle 7.71285e-014 -1.59028e-015
rhumerus -7.65844 14.5814 -86.4151
rradius 36.5255
rwrist 10.4721
rhand -24.971 5.97341
rfingers 7.12502
rthumb 1.53955 -24.0008
lclavicle 7.71285e-014 -1.59028e-015
lhumerus -27.9383 -39.7102 104.953
lradius 45.0857
lwrist -17.4213
lhand -30.4185 24.1303
lfingers 7.12502
lthumb -3.72163 54.0776
rfemur -32.8456 -21.1194 24.3959
rtibia 47.3165
rfoot -18.3169 -1.21848
rtoes 5.97636
lfemur -30.6896 -2.90863 -16.7392
ltibia 37.1898
lfoot -16.3743 -11.7518
ltoes -13.0096
